<svg width="48" height="48" viewBox="0 0 48 48" fill="none" xmlns="http://www.w3.org/2000/svg">
<rect x="0.5" y="0.5" width="47" height="47" rx="23.5" stroke="#E4E9ED"/>
<path d="M30.844 29.2883C30.844 28.6244 30.832 28.4921 30.7947 28.3931C30.74 28.248 30.6424 28.1226 30.515 28.0343C30.4284 27.9744 30.2972 27.9297 29.6354 27.7642L29.0945 27.6284C28.2252 27.4111 27.9264 27.3434 27.6435 27.3494C27.3718 27.3553 27.1033 27.4092 26.8505 27.5091C26.5873 27.6131 26.3383 27.7911 25.621 28.3282L24.3386 29.2876C25.8172 30.0371 27.4958 30.5452 29.3467 30.7722C30.0726 30.8612 30.2013 30.8598 30.3337 30.8132C30.4936 30.7569 30.6887 30.5839 30.7641 30.432C30.7854 30.3891 30.8114 30.3162 30.8268 30.1351C30.8433 29.9412 30.844 29.6883 30.844 29.2883ZM18.689 17.1565C18.2963 17.1565 18.0496 17.1572 17.8601 17.1736C17.6846 17.1888 17.6129 17.2142 17.5684 17.2363C17.4165 17.3117 17.2436 17.5068 17.1872 17.6668C17.1406 17.7991 17.1393 17.928 17.2282 18.6537C17.4441 20.4134 17.9135 22.0175 18.6032 23.4417L19.4842 22.3951C20.1023 21.6605 20.3084 21.4053 20.4302 21.1298C20.5472 20.8651 20.613 20.5804 20.6242 20.2913C20.6357 19.9903 20.5631 19.6702 20.3302 18.7388L20.2362 18.365C20.0708 17.7033 20.0261 17.572 19.9662 17.4855C19.8779 17.358 19.7524 17.2604 19.6073 17.2057C19.5088 17.1686 19.3706 17.1565 18.689 17.1565ZM32.3718 29.2883C32.3718 29.6628 32.3727 29.9913 32.3494 30.2649C32.3251 30.5512 32.271 30.8329 32.1331 31.1109C31.8809 31.6191 31.3768 32.0652 30.8417 32.2538C30.2983 32.4452 29.7623 32.3626 29.1609 32.2889C26.6808 31.9847 24.4485 31.2121 22.5407 30.0284C20.5836 28.814 18.9791 27.1736 17.8049 25.1845C16.7152 23.3383 16.0012 21.201 15.7116 18.8395C15.6378 18.2382 15.5552 17.7021 15.7466 17.1587C15.9352 16.6236 16.3814 16.1195 16.8896 15.8673C17.1659 15.7303 17.4447 15.6763 17.7288 15.6517C17.9992 15.6284 18.3224 15.6286 18.689 15.6286C19.2435 15.6286 19.7239 15.6169 20.1467 15.7763C20.5819 15.9405 20.9569 16.2333 21.2217 16.6156C21.4791 16.9871 21.5841 17.4562 21.7186 17.9943L21.8126 18.368C22.0235 19.2116 22.1724 19.7795 22.1505 20.3495C22.132 20.8314 22.0224 21.3056 21.8275 21.7468C21.5969 22.2685 21.2131 22.7137 20.6533 23.3791L19.4037 24.8629C20.3276 26.2902 21.5088 27.4967 22.9122 28.4476L24.7057 27.1055C25.3556 26.6188 25.7907 26.2855 26.2887 26.0886C26.7103 25.922 27.1583 25.8312 27.6114 25.8216C28.1468 25.8102 28.677 25.9492 29.4646 26.1461L30.0062 26.2819C30.5442 26.4164 31.0133 26.5214 31.3848 26.7787C31.7672 27.0435 32.0599 27.4186 32.2241 27.8537C32.3834 28.276 32.3718 28.7469 32.3718 29.2883Z" fill="#13202E"/>
<path d="M30.844 29.2883C30.844 28.6244 30.832 28.4921 30.7947 28.3931C30.74 28.248 30.6424 28.1226 30.515 28.0343C30.4284 27.9744 30.2972 27.9297 29.6354 27.7642L29.0945 27.6284C28.2252 27.4111 27.9264 27.3434 27.6435 27.3494C27.3718 27.3553 27.1033 27.4092 26.8505 27.5091C26.5873 27.6131 26.3383 27.7911 25.621 28.3282L24.3386 29.2876C25.8172 30.0371 27.4958 30.5452 29.3467 30.7722C30.0726 30.8612 30.2013 30.8598 30.3337 30.8132C30.4936 30.7569 30.6887 30.5839 30.7641 30.432C30.7854 30.3891 30.8114 30.3162 30.8268 30.1351C30.8433 29.9412 30.844 29.6883 30.844 29.2883ZM18.689 17.1565C18.2963 17.1565 18.0496 17.1572 17.8601 17.1736C17.6846 17.1888 17.6129 17.2142 17.5684 17.2363C17.4165 17.3117 17.2436 17.5068 17.1872 17.6668C17.1406 17.7991 17.1393 17.928 17.2282 18.6537C17.4441 20.4134 17.9135 22.0175 18.6032 23.4417L19.4842 22.3951C20.1023 21.6605 20.3084 21.4053 20.4302 21.1298C20.5472 20.8651 20.613 20.5804 20.6242 20.2913C20.6357 19.9903 20.5631 19.6702 20.3302 18.7388L20.2362 18.365C20.0708 17.7033 20.0261 17.572 19.9662 17.4855C19.8779 17.358 19.7524 17.2604 19.6073 17.2057C19.5088 17.1686 19.3706 17.1565 18.689 17.1565ZM32.3718 29.2883C32.3718 29.6628 32.3727 29.9913 32.3494 30.2649C32.3251 30.5512 32.271 30.8329 32.1331 31.1109C31.8809 31.6191 31.3768 32.0652 30.8417 32.2538C30.2983 32.4452 29.7623 32.3626 29.1609 32.2889C26.6808 31.9847 24.4485 31.2121 22.5407 30.0284C20.5836 28.814 18.9791 27.1736 17.8049 25.1845C16.7152 23.3383 16.0012 21.201 15.7116 18.8395C15.6378 18.2382 15.5552 17.7021 15.7466 17.1587C15.9352 16.6236 16.3814 16.1195 16.8896 15.8673C17.1659 15.7303 17.4447 15.6763 17.7288 15.6517C17.9992 15.6284 18.3224 15.6286 18.689 15.6286C19.2435 15.6286 19.7239 15.6169 20.1467 15.7763C20.5819 15.9405 20.9569 16.2333 21.2217 16.6156C21.4791 16.9871 21.5841 17.4562 21.7186 17.9943L21.8126 18.368C22.0235 19.2116 22.1724 19.7795 22.1505 20.3495C22.132 20.8314 22.0224 21.3056 21.8275 21.7468C21.5969 22.2685 21.2131 22.7137 20.6533 23.3791L19.4037 24.8629C20.3276 26.2902 21.5088 27.4967 22.9122 28.4476L24.7057 27.1055C25.3556 26.6188 25.7907 26.2855 26.2887 26.0886C26.7103 25.922 27.1583 25.8312 27.6114 25.8216C28.1468 25.8102 28.677 25.9492 29.4646 26.1461L30.0062 26.2819C30.5442 26.4164 31.0133 26.5214 31.3848 26.7787C31.7672 27.0435 32.0599 27.4186 32.2241 27.8537C32.3834 28.276 32.3718 28.7469 32.3718 29.2883Z" fill="black" fill-opacity="0.2"/>
<path d="M30.844 29.2883C30.844 28.6244 30.832 28.4921 30.7947 28.3931C30.74 28.248 30.6424 28.1226 30.515 28.0343C30.4284 27.9744 30.2972 27.9297 29.6354 27.7642L29.0945 27.6284C28.2252 27.4111 27.9264 27.3434 27.6435 27.3494C27.3718 27.3553 27.1033 27.4092 26.8505 27.5091C26.5873 27.6131 26.3383 27.7911 25.621 28.3282L24.3386 29.2876C25.8172 30.0371 27.4958 30.5452 29.3467 30.7722C30.0726 30.8612 30.2013 30.8598 30.3337 30.8132C30.4936 30.7569 30.6887 30.5839 30.7641 30.432C30.7854 30.3891 30.8114 30.3162 30.8268 30.1351C30.8433 29.9412 30.844 29.6883 30.844 29.2883ZM18.689 17.1565C18.2963 17.1565 18.0496 17.1572 17.8601 17.1736C17.6846 17.1888 17.6129 17.2142 17.5684 17.2363C17.4165 17.3117 17.2436 17.5068 17.1872 17.6668C17.1406 17.7991 17.1393 17.928 17.2282 18.6537C17.4441 20.4134 17.9135 22.0175 18.6032 23.4417L19.4842 22.3951C20.1023 21.6605 20.3084 21.4053 20.4302 21.1298C20.5472 20.8651 20.613 20.5804 20.6242 20.2913C20.6357 19.9903 20.5631 19.6702 20.3302 18.7388L20.2362 18.365C20.0708 17.7033 20.0261 17.572 19.9662 17.4855C19.8779 17.358 19.7524 17.2604 19.6073 17.2057C19.5088 17.1686 19.3706 17.1565 18.689 17.1565ZM32.3718 29.2883C32.3718 29.6628 32.3727 29.9913 32.3494 30.2649C32.3251 30.5512 32.271 30.8329 32.1331 31.1109C31.8809 31.6191 31.3768 32.0652 30.8417 32.2538C30.2983 32.4452 29.7623 32.3626 29.1609 32.2889C26.6808 31.9847 24.4485 31.2121 22.5407 30.0284C20.5836 28.814 18.9791 27.1736 17.8049 25.1845C16.7152 23.3383 16.0012 21.201 15.7116 18.8395C15.6378 18.2382 15.5552 17.7021 15.7466 17.1587C15.9352 16.6236 16.3814 16.1195 16.8896 15.8673C17.1659 15.7303 17.4447 15.6763 17.7288 15.6517C17.9992 15.6284 18.3224 15.6286 18.689 15.6286C19.2435 15.6286 19.7239 15.6169 20.1467 15.7763C20.5819 15.9405 20.9569 16.2333 21.2217 16.6156C21.4791 16.9871 21.5841 17.4562 21.7186 17.9943L21.8126 18.368C22.0235 19.2116 22.1724 19.7795 22.1505 20.3495C22.132 20.8314 22.0224 21.3056 21.8275 21.7468C21.5969 22.2685 21.2131 22.7137 20.6533 23.3791L19.4037 24.8629C20.3276 26.2902 21.5088 27.4967 22.9122 28.4476L24.7057 27.1055C25.3556 26.6188 25.7907 26.2855 26.2887 26.0886C26.7103 25.922 27.1583 25.8312 27.6114 25.8216C28.1468 25.8102 28.677 25.9492 29.4646 26.1461L30.0062 26.2819C30.5442 26.4164 31.0133 26.5214 31.3848 26.7787C31.7672 27.0435 32.0599 27.4186 32.2241 27.8537C32.3834 28.276 32.3718 28.7469 32.3718 29.2883Z" fill="black" fill-opacity="0.2"/>
<path d="M30.844 29.2883C30.844 28.6244 30.832 28.4921 30.7947 28.3931C30.74 28.248 30.6424 28.1226 30.515 28.0343C30.4284 27.9744 30.2972 27.9297 29.6354 27.7642L29.0945 27.6284C28.2252 27.4111 27.9264 27.3434 27.6435 27.3494C27.3718 27.3553 27.1033 27.4092 26.8505 27.5091C26.5873 27.6131 26.3383 27.7911 25.621 28.3282L24.3386 29.2876C25.8172 30.0371 27.4958 30.5452 29.3467 30.7722C30.0726 30.8612 30.2013 30.8598 30.3337 30.8132C30.4936 30.7569 30.6887 30.5839 30.7641 30.432C30.7854 30.3891 30.8114 30.3162 30.8268 30.1351C30.8433 29.9412 30.844 29.6883 30.844 29.2883ZM18.689 17.1565C18.2963 17.1565 18.0496 17.1572 17.8601 17.1736C17.6846 17.1888 17.6129 17.2142 17.5684 17.2363C17.4165 17.3117 17.2436 17.5068 17.1872 17.6668C17.1406 17.7991 17.1393 17.928 17.2282 18.6537C17.4441 20.4134 17.9135 22.0175 18.6032 23.4417L19.4842 22.3951C20.1023 21.6605 20.3084 21.4053 20.4302 21.1298C20.5472 20.8651 20.613 20.5804 20.6242 20.2913C20.6357 19.9903 20.5631 19.6702 20.3302 18.7388L20.2362 18.365C20.0708 17.7033 20.0261 17.572 19.9662 17.4855C19.8779 17.358 19.7524 17.2604 19.6073 17.2057C19.5088 17.1686 19.3706 17.1565 18.689 17.1565ZM32.3718 29.2883C32.3718 29.6628 32.3727 29.9913 32.3494 30.2649C32.3251 30.5512 32.271 30.8329 32.1331 31.1109C31.8809 31.6191 31.3768 32.0652 30.8417 32.2538C30.2983 32.4452 29.7623 32.3626 29.1609 32.2889C26.6808 31.9847 24.4485 31.2121 22.5407 30.0284C20.5836 28.814 18.9791 27.1736 17.8049 25.1845C16.7152 23.3383 16.0012 21.201 15.7116 18.8395C15.6378 18.2382 15.5552 17.7021 15.7466 17.1587C15.9352 16.6236 16.3814 16.1195 16.8896 15.8673C17.1659 15.7303 17.4447 15.6763 17.7288 15.6517C17.9992 15.6284 18.3224 15.6286 18.689 15.6286C19.2435 15.6286 19.7239 15.6169 20.1467 15.7763C20.5819 15.9405 20.9569 16.2333 21.2217 16.6156C21.4791 16.9871 21.5841 17.4562 21.7186 17.9943L21.8126 18.368C22.0235 19.2116 22.1724 19.7795 22.1505 20.3495C22.132 20.8314 22.0224 21.3056 21.8275 21.7468C21.5969 22.2685 21.2131 22.7137 20.6533 23.3791L19.4037 24.8629C20.3276 26.2902 21.5088 27.4967 22.9122 28.4476L24.7057 27.1055C25.3556 26.6188 25.7907 26.2855 26.2887 26.0886C26.7103 25.922 27.1583 25.8312 27.6114 25.8216C28.1468 25.8102 28.677 25.9492 29.4646 26.1461L30.0062 26.2819C30.5442 26.4164 31.0133 26.5214 31.3848 26.7787C31.7672 27.0435 32.0599 27.4186 32.2241 27.8537C32.3834 28.276 32.3718 28.7469 32.3718 29.2883Z" fill="black" fill-opacity="0.2"/>
<path d="M30.844 29.2883C30.844 28.6244 30.832 28.4921 30.7947 28.3931C30.74 28.248 30.6424 28.1226 30.515 28.0343C30.4284 27.9744 30.2972 27.9297 29.6354 27.7642L29.0945 27.6284C28.2252 27.4111 27.9264 27.3434 27.6435 27.3494C27.3718 27.3553 27.1033 27.4092 26.8505 27.5091C26.5873 27.6131 26.3383 27.7911 25.621 28.3282L24.3386 29.2876C25.8172 30.0371 27.4958 30.5452 29.3467 30.7722C30.0726 30.8612 30.2013 30.8598 30.3337 30.8132C30.4936 30.7569 30.6887 30.5839 30.7641 30.432C30.7854 30.3891 30.8114 30.3162 30.8268 30.1351C30.8433 29.9412 30.844 29.6883 30.844 29.2883ZM18.689 17.1565C18.2963 17.1565 18.0496 17.1572 17.8601 17.1736C17.6846 17.1888 17.6129 17.2142 17.5684 17.2363C17.4165 17.3117 17.2436 17.5068 17.1872 17.6668C17.1406 17.7991 17.1393 17.928 17.2282 18.6537C17.4441 20.4134 17.9135 22.0175 18.6032 23.4417L19.4842 22.3951C20.1023 21.6605 20.3084 21.4053 20.4302 21.1298C20.5472 20.8651 20.613 20.5804 20.6242 20.2913C20.6357 19.9903 20.5631 19.6702 20.3302 18.7388L20.2362 18.365C20.0708 17.7033 20.0261 17.572 19.9662 17.4855C19.8779 17.358 19.7524 17.2604 19.6073 17.2057C19.5088 17.1686 19.3706 17.1565 18.689 17.1565ZM32.3718 29.2883C32.3718 29.6628 32.3727 29.9913 32.3494 30.2649C32.3251 30.5512 32.271 30.8329 32.1331 31.1109C31.8809 31.6191 31.3768 32.0652 30.8417 32.2538C30.2983 32.4452 29.7623 32.3626 29.1609 32.2889C26.6808 31.9847 24.4485 31.2121 22.5407 30.0284C20.5836 28.814 18.9791 27.1736 17.8049 25.1845C16.7152 23.3383 16.0012 21.201 15.7116 18.8395C15.6378 18.2382 15.5552 17.7021 15.7466 17.1587C15.9352 16.6236 16.3814 16.1195 16.8896 15.8673C17.1659 15.7303 17.4447 15.6763 17.7288 15.6517C17.9992 15.6284 18.3224 15.6286 18.689 15.6286C19.2435 15.6286 19.7239 15.6169 20.1467 15.7763C20.5819 15.9405 20.9569 16.2333 21.2217 16.6156C21.4791 16.9871 21.5841 17.4562 21.7186 17.9943L21.8126 18.368C22.0235 19.2116 22.1724 19.7795 22.1505 20.3495C22.132 20.8314 22.0224 21.3056 21.8275 21.7468C21.5969 22.2685 21.2131 22.7137 20.6533 23.3791L19.4037 24.8629C20.3276 26.2902 21.5088 27.4967 22.9122 28.4476L24.7057 27.1055C25.3556 26.6188 25.7907 26.2855 26.2887 26.0886C26.7103 25.922 27.1583 25.8312 27.6114 25.8216C28.1468 25.8102 28.677 25.9492 29.4646 26.1461L30.0062 26.2819C30.5442 26.4164 31.0133 26.5214 31.3848 26.7787C31.7672 27.0435 32.0599 27.4186 32.2241 27.8537C32.3834 28.276 32.3718 28.7469 32.3718 29.2883Z" fill="black" fill-opacity="0.2"/>
</svg>
